<?xml version="1.0" encoding="UTF-8"?>
<svg id="Layer_2" data-name="Layer 2" xmlns="http://www.w3.org/2000/svg" viewBox="0 0 681 486.07">
  <defs>
    <style>
      .cls-1 {
        stroke-width: 0px;
      }
    </style>
  </defs>
  <path class="cls-1" d="m263.26,136.22c15.11-5.17,35.21-10.29,59.21-11.84,38.29-2.47,69.4,5.26,88.81,11.84,6.06-17.51,15.33-40.21,29.6-65.13C460.47,36.91,482.54-1.6,500.09.05c16.69,1.57,35,40.02,47.36,183.54,14.62,24.09,37.16,70.13,29.6,124.33-14.63,104.97-134.45,185.48-248.66,177.62-107.69-7.41-208.35-93.25-219.06-195.38-5.02-47.86,10.88-88.08,23.68-112.49,14.17-126.67,32.12-158.6,47.36-159.85,11.04-.91,21.87,14.18,41.44,41.44,21.01,29.27,33.72,56.81,41.44,76.97Z"/>
  <path class="cls-1" d="m7.83,221.12c-6.31,4.11-9.64,13.84-6.82,20.23,2.81,6.37,10.36,6.24,27.48,11,30.17,8.39,37.8,17.43,46.17,12.11,6.21-3.95,9.3-13.57,6.82-20.23-2.5-6.73-9.51-7.25-34.74-15.18-26.42-8.31-32.53-12.09-38.92-7.93Z"/>
  <path class="cls-1" d="m599.41,259.41c-3.25,6.79-1.03,16.84,4.7,20.82,5.72,3.98,12.09-.06,29.19-4.91,30.12-8.54,41.35-4.79,45.73-13.7,3.25-6.61.88-16.43-4.7-20.82-5.64-4.45-11.89-1.24-37.56,5.12-26.88,6.65-34.07,6.61-37.36,13.49Z"/>
  <path class="cls-1" d="m7.8,301.87c-4.06,6.34-3.1,16.58,2.09,21.24,5.19,4.66,12.01,1.43,29.58-1.26,30.95-4.75,41.62.36,47.07-7.94,4.04-6.16,2.9-16.19-2.09-21.24-5.05-5.11-11.65-2.7-37.91.43-27.5,3.28-34.62,2.35-38.74,8.77Z"/>
  <path class="cls-1" d="m603.11,314.79c-5.67,4.95-7.62,15.05-3.93,20.98,3.68,5.92,11.13,4.73,28.75,7.06,31.04,4.09,39.86,11.99,47.41,5.54,5.6-4.78,7.31-14.74,3.93-20.98-3.42-6.32-10.43-5.85-36.52-10.19-27.32-4.54-33.9-7.43-39.64-2.42Z"/>
</svg>