<?xml version="1.0" encoding="UTF-8"?>
<svg id="Layer_2" data-name="Layer 2" xmlns="http://www.w3.org/2000/svg" viewBox="0 0 1517.66 513.39">
  <defs>
    <style>
      .cls-1 {
        stroke-width: 4px;
      }

      .cls-1, .cls-2 {
        fill: none;
        stroke: #000;
        stroke-miterlimit: 10;
      }

      .cls-2 {
        stroke-width: 8px;
      }

      .cls-3 {
        stroke-width: 0px;
      }
    </style>
  </defs>
  <path class="cls-2" d="m697.88,405.73c-9.54,37.87-26.66,56.92-39,67-34.02,27.79-64.6,14.25-238,10-38.34-.94-76.68-5.77-115-4-44.5,2.05-63.5,7.2-82-6-27.54-19.65-28.5-61.79-29-84-1.43-63.02,29.2-111.46,47-135-8.74-10.43-20.7-27.46-28-51-6-19.35-15.93-65.9,1-79,28.62-22.15,122.59,60.09,127,64,21.11-2.83,52.08-8.32,88-20,71.02-23.1,117.64-56.18,137-69C648.73,44.5,755.68,12.66,826.88,5.73c207.12-20.17,403.63,141.99,452,197,31.6,35.94,69.89,65.42,104,99,12.32,12.13,24.95,24.83,46,33,19,7.37,26.97,4.11,45,14,8.35,4.58,25.59,14.04,34,34,1.91,4.52,11.36,26.98,1,41-15.17,20.51-61.55,7.77-68,6-5.23-1.44-5.42-1.89-12-4-29.78-9.56-55.24-9.77-68-10-85.94-1.53-122.47-13.22-224-5-31.18,2.52-72.95,7.29-122,17"/>
  <path class="cls-2" d="m867.38,350.23c43.44,37.63,83.29,56.6,113,67,34.39,12.04,70.73,18.03,75,39,2.78,13.66-9.4,27.04-13,31-18.24,20.05-45.78,21.34-60,22-64.56,3.01-99.6-36.38-174-63-25.26-9.04-64.2-20.04-116-23"/>
  <path class="cls-2" d="m200.38,344.23c-59.52,27-102.78,38.08-133,43-10.33,1.68-33.44,4.97-49,23-11.22,13-19.24,34.52-11,46,7.28,10.15,24.85,9.13,37,8,51.36-4.76,109.41-20.95,155-36"/>
  <path class="cls-2" d="m297.38,201.23c28.81-9.95,74.29-21.03,129-15,20.01,2.2,37.78,6.31,53,11"/>
  <path class="cls-2" d="m562.38,198.23c28.45-30.07,55.77-49.08,76-61,35.96-21.19,45.86-17.83,50-15,11.34,7.76,9,31.75,8,42-2.14,21.94-9.77,24.2-9,42,.21,4.89,3.48,15.32,10,36,7.54,23.9,8.73,25.63,10,33,1.51,8.77,2.51,21.95-1,39"/>
  <path class="cls-2" d="m558.38,411.23c13.54-4.74,30.74-9.45,51-12,24.58-3.1,45.85-2.03,62,0"/>
  <path class="cls-2" d="m562.23,431.67c9.88-1.52,22.37-2.79,36.94-2.8,17.69,0,32.83,1.86,44.27,3.89"/>
  <path class="cls-2" d="m251.38,400.23c-13.54-4.74-30.74-9.45-51-12-24.58-3.1-45.85-2.03-62,0"/>
  <path class="cls-2" d="m247.53,420.67c-9.88-1.52-22.37-2.79-36.94-2.8-17.69,0-32.83,1.86-44.27,3.89"/>
  <path class="cls-3" d="m370.38,415.23c-2.04,3.96,1.31,9.3,8,20,7.39,11.81,11.24,17.96,17.5,18.5,5.79.5,10.27-4.09,18-12,8-8.19,16.46-16.85,14-23-2.07-5.16-10.73-5.8-27-7-16.43-1.21-27.65-2.04-30.5,3.5Z"/>
  <ellipse class="cls-3" cx="314.02" cy="322.23" rx="23.64" ry="37"/>
  <ellipse class="cls-3" cx="492.02" cy="329.23" rx="23.64" ry="37"/>
  <path class="cls-1" d="m8.38,453.23c1.46-3.87,5.02-11.62,13-18,4.83-3.86,9.63-5.9,13-7"/>
  <path class="cls-1" d="m23.38,466.23c1.46-3.87,5.02-11.62,13-18,4.83-3.86,9.63-5.9,13-7"/>
  <path class="cls-1" d="m1018.95,460.05c3.74,1.78,11.17,5.96,16.87,14.43,3.45,5.13,5.09,10.08,5.91,13.53"/>
  <path class="cls-1" d="m1478.83,392.71c3.2,2.62,10.16,7.55,20.26,9.08,6.12.93,11.29.29,14.76-.44"/>
  <path class="cls-1" d="m1472.83,412.71c3.2,2.62,10.16,7.55,20.26,9.08,6.12.93,11.29.29,14.76-.44"/>
  <path class="cls-1" d="m991.42,471.26c3.25,2.56,9.57,8.29,13.25,17.82,2.23,5.77,2.72,10.96,2.76,14.5"/>
</svg>