<?xml version="1.0" encoding="UTF-8"?>
<svg id="Layer_2" data-name="Layer 2" xmlns="http://www.w3.org/2000/svg" viewBox="0 0 1654.23 416.59">
  <defs>
    <style>
      .cls-1 {
        stroke-width: 3px;
      }

      .cls-1, .cls-2, .cls-3, .cls-4 {
        stroke: #000;
        stroke-miterlimit: 10;
      }

      .cls-3 {
        fill: none;
      }

      .cls-3, .cls-4 {
        stroke-width: 17px;
      }

      .cls-5 {
        stroke-width: 0px;
      }
    </style>
  </defs>
  <path class="cls-3" d="m57,416.58c-.04-36.19,1.43-74.62,5-115,9.48-107.31,31.32-201.14,56-279,18.66,25.77,38.26,56.07,57,91,14.95,27.87,27.1,54.46,37,79,9-3.06,21.26-6.18,36-7,20.47-1.14,37.19,2.62,48,6,8.03-25.7,18.96-54.87,34-86,16.56-34.27,34.4-63.26,51-87,38.93,69.56,80.72,167.02,96,288,4.01,31.73,5.78,61.84,6,90"/>
  <ellipse class="cls-2" cx="160.5" cy="321.08" rx="20.5" ry="13.5" transform="translate(-170.12 460.88) rotate(-86.36)"/>
  <path class="cls-2" d="m342,318.08c0,11.32,6.04,20.5,13.5,20.5,7.46,0,13.5-9.18,13.5-20.5s-6.04-20.5-13.5-20.5c-7.46,0-13.5,9.18-13.5,20.5Z"/>
  <path class="cls-5" d="m231,334.58c2.23-4.92,10.26-5.36,22-6,14.08-.77,24.31-1.33,27,4,2.93,5.81-4.86,15.14-8.5,19.5-4.69,5.61-9.47,11.34-16.5,11.5-8.84.2-14.99-8.53-18.5-13.5-3.29-4.67-7.62-10.81-5.5-15.5Z"/>
  <path class="cls-4" d="m6.5,311.08l54,3"/>
  <path class="cls-4" d="m479.81,309.94c17.79-2.9,35.58-5.81,53.38-8.71"/>
  <path class="cls-4" d="m479.65,348.37l53.7,6.42"/>
  <path class="cls-4" d="m1.6,371.37c17.93-1.86,35.86-3.72,53.79-5.58"/>
  <path class="cls-1" d="m111.96,403.48l30.42-32.26"/>
  <path class="cls-1" d="m132.96,403.48l30.42-32.26"/>
  <path class="cls-1" d="m154.96,403.48l30.42-32.26"/>
  <path class="cls-1" d="m310.96,403.48l30.42-32.26"/>
  <path class="cls-1" d="m331.96,403.48l30.42-32.26"/>
  <path class="cls-1" d="m353.96,403.48l30.42-32.26"/>
  <path class="cls-3" d="m1598.33.05c-.21,36.19-1.95,74.61-5.8,114.96-10.22,107.25-32.72,200.91-57.94,278.6-18.48-25.9-37.87-56.34-56.36-91.4-14.76-27.97-26.72-54.65-36.45-79.26-9.02,3-21.3,6.03-36.05,6.75-20.48,1-37.17-2.88-47.96-6.33-8.21,25.64-19.34,54.73-34.6,85.76-16.8,34.16-34.84,63.02-51.61,86.64-38.45-69.83-79.56-167.58-93.99-288.66-3.79-31.76-5.35-61.88-5.37-90.04"/>
  <ellipse class="cls-2" cx="1494.17" cy="94.83" rx="20.5" ry="13.5" transform="translate(1294.38 1578.61) rotate(-85.96)"/>
  <ellipse class="cls-2" cx="1299.16" cy="96.47" rx="20.5" ry="13.5" transform="translate(1193.64 1394.92) rotate(-89.6)"/>
  <path class="cls-5" d="m1423.77,80.84c-2.26,4.9-10.3,5.29-22.04,5.85-14.09.67-24.32,1.16-26.97-4.19-2.89-5.83,4.96-15.1,8.64-19.44,4.73-5.58,9.55-11.27,16.58-11.38,8.84-.14,14.93,8.63,18.41,13.63,3.26,4.69,7.55,10.86,5.39,15.54Z"/>
  <path class="cls-4" d="m1648.1,105.9l-53.98-3.38"/>
  <path class="cls-4" d="m1174.79,103.74c-17.81,2.78-35.62,5.56-53.44,8.34"/>
  <path class="cls-4" d="m1175.22,65.31l-53.65-6.79"/>
  <path class="cls-4" d="m1653.42,45.64c-17.94,1.74-35.89,3.47-53.83,5.21"/>
  <path class="cls-1" d="m1543.29,12.77c-10.21,10.68-20.43,21.37-30.64,32.05"/>
  <path class="cls-1" d="m1522.29,12.62c-10.21,10.68-20.43,21.37-30.64,32.05"/>
  <path class="cls-1" d="m1500.29,12.47c-10.21,10.68-20.43,21.37-30.64,32.05"/>
  <path class="cls-1" d="m1344.29,11.38c-10.21,10.68-20.43,21.37-30.64,32.05"/>
  <path class="cls-1" d="m1323.29,11.23c-10.21,10.68-20.43,21.37-30.64,32.05"/>
  <path class="cls-1" d="m1301.29,11.08c-10.21,10.68-20.43,21.37-30.64,32.05"/>
  <path class="cls-3" d="m762,43.58c-32.03-1.06-64.71-1.74-98-2-20.23-.16-40.23-.15-60,0,4.26,45.58,7.19,94.71,8,147,.77,49.59-.45,96.37-3,140,31.28-1.43,63.99-2.17,98-2,27.21.13,53.57.84,79,2"/>
  <path class="cls-3" d="m701.5,180.58h-87"/>
  <path class="cls-3" d="m930.67,43.64c-60.6,25.02-66.9,122.81-67.83,137.2-1.29,20.01-8.01,124.25,55.57,154.81,25.29,12.15,56.24,10.03,79.41-1.63,46.35-23.33,54.21-81.14,59.79-122.19,3.62-26.66,9.94-78.52-19.69-125.66-8.65-13.77-23.37-36.44-51.59-45.22-1.78-.55-28.59-8.49-55.67,2.69Z"/>
</svg>