<?xml version="1.0" encoding="UTF-8"?>
<svg id="Layer_3" data-name="Layer 3" xmlns="http://www.w3.org/2000/svg" xmlns:xlink="http://www.w3.org/1999/xlink" viewBox="0 0 3235 2330">
  <defs>
    <style>
      .cls-1 {
        clip-path: url(#clippath);
      }

      .cls-2 {
        fill: none;
      }

      .cls-2, .cls-3 {
        stroke-width: 0px;
      }
    </style>
    <clipPath id="clippath">
      <rect class="cls-2" width="3235" height="2330"/>
    </clipPath>
  </defs>
  <g class="cls-1">
    <g>
      <path class="cls-3" d="m3028.76,914.51c6.57-2.24,15.3-4.47,25.72-5.14,16.63-1.07,30.15,2.29,38.58,5.14,2.63-7.61,6.66-17.47,12.86-28.29,8.51-14.85,18.1-31.58,25.72-30.87,7.25.68,15.21,17.39,20.58,79.74,6.35,10.47,16.14,30.47,12.86,54.02-6.35,45.6-58.41,80.58-108.03,77.17-46.79-3.22-90.52-40.51-95.17-84.88-2.18-20.79,4.73-38.27,10.29-48.87,6.16-55.03,13.95-68.91,20.58-69.45,4.8-.39,9.5,6.16,18.01,18.01,9.13,12.71,14.65,24.68,18.01,33.44Z"/>
      <path class="cls-3" d="m2917.79,951.39c-2.74,1.78-4.19,6.01-2.96,8.79,1.22,2.77,4.5,2.71,11.94,4.78,13.11,3.64,16.42,7.57,20.06,5.26,2.7-1.72,4.04-5.9,2.96-8.79-1.09-2.93-4.13-3.15-15.09-6.6-11.48-3.61-14.13-5.25-16.91-3.44Z"/>
      <path class="cls-3" d="m3174.8,968.03c-1.41,2.95-.45,7.31,2.04,9.05,2.49,1.73,5.25-.03,12.68-2.13,13.09-3.71,17.96-2.08,19.87-5.95,1.41-2.87.38-7.14-2.04-9.05-2.45-1.93-5.17-.54-16.32,2.22-11.68,2.89-14.8,2.87-16.23,5.86Z"/>
      <path class="cls-3" d="m2917.78,986.48c-1.76,2.75-1.35,7.2.91,9.23,2.25,2.02,5.22.62,12.85-.55,13.44-2.06,18.08.16,20.45-3.45,1.76-2.67,1.26-7.04-.91-9.23-2.19-2.22-5.06-1.17-16.47.19-11.95,1.42-15.04,1.02-16.83,3.81Z"/>
      <path class="cls-3" d="m3176.41,992.09c-2.46,2.15-3.31,6.54-1.71,9.12,1.6,2.57,4.83,2.06,12.49,3.07,13.49,1.78,17.32,5.21,20.6,2.41,2.43-2.08,3.18-6.4,1.71-9.12-1.49-2.75-4.53-2.54-15.86-4.43-11.87-1.97-14.73-3.23-17.22-1.05Z"/>
    </g>
    <g>
      <path class="cls-3" d="m3029.76,1379.51c6.57-2.24,15.3-4.47,25.72-5.14,16.63-1.07,30.15,2.29,38.58,5.14,2.63-7.61,6.66-17.47,12.86-28.29,8.51-14.85,18.1-31.58,25.72-30.87,7.25.68,15.21,17.39,20.58,79.74,6.35,10.47,16.14,30.47,12.86,54.02-6.35,45.6-58.41,80.58-108.03,77.17-46.79-3.22-90.52-40.51-95.17-84.88-2.18-20.79,4.73-38.27,10.29-48.87,6.16-55.03,13.95-68.91,20.58-69.45,4.8-.39,9.5,6.16,18.01,18.01,9.13,12.71,14.65,24.68,18.01,33.44Z"/>
      <path class="cls-3" d="m2918.79,1416.39c-2.74,1.78-4.19,6.01-2.96,8.79,1.22,2.77,4.5,2.71,11.94,4.78,13.11,3.64,16.42,7.57,20.06,5.26,2.7-1.72,4.04-5.9,2.96-8.79-1.09-2.93-4.13-3.15-15.09-6.6-11.48-3.61-14.13-5.25-16.91-3.44Z"/>
      <path class="cls-3" d="m3175.8,1433.03c-1.41,2.95-.45,7.31,2.04,9.05,2.49,1.73,5.25-.03,12.68-2.13,13.09-3.71,17.96-2.08,19.87-5.95,1.41-2.87.38-7.14-2.04-9.05-2.45-1.93-5.17-.54-16.32,2.22-11.68,2.89-14.8,2.87-16.23,5.86Z"/>
      <path class="cls-3" d="m2918.78,1451.48c-1.76,2.75-1.35,7.2.91,9.23,2.25,2.02,5.22.62,12.85-.55,13.44-2.06,18.08.16,20.45-3.45,1.76-2.67,1.26-7.04-.91-9.23-2.19-2.22-5.06-1.17-16.47.19-11.95,1.42-15.04,1.02-16.83,3.81Z"/>
      <path class="cls-3" d="m3177.41,1457.09c-2.46,2.15-3.31,6.54-1.71,9.12,1.6,2.57,4.83,2.06,12.49,3.07,13.49,1.78,17.32,5.21,20.6,2.41,2.43-2.08,3.18-6.4,1.71-9.12-1.49-2.75-4.53-2.54-15.86-4.43-11.87-1.97-14.73-3.23-17.22-1.05Z"/>
    </g>
    <g>
      <path class="cls-3" d="m3029.76,1844.51c6.57-2.24,15.3-4.47,25.72-5.14,16.63-1.07,30.15,2.29,38.58,5.14,2.63-7.61,6.66-17.47,12.86-28.29,8.51-14.85,18.1-31.58,25.72-30.87,7.25.68,15.21,17.39,20.58,79.74,6.35,10.47,16.14,30.47,12.86,54.02-6.35,45.6-58.41,80.58-108.03,77.17-46.79-3.22-90.52-40.51-95.17-84.88-2.18-20.79,4.73-38.27,10.29-48.87,6.16-55.03,13.95-68.91,20.58-69.45,4.8-.39,9.5,6.16,18.01,18.01,9.13,12.71,14.65,24.68,18.01,33.44Z"/>
      <path class="cls-3" d="m2918.79,1881.39c-2.74,1.78-4.19,6.01-2.96,8.79,1.22,2.77,4.5,2.71,11.94,4.78,13.11,3.64,16.42,7.57,20.06,5.26,2.7-1.72,4.04-5.9,2.96-8.79-1.09-2.93-4.13-3.15-15.09-6.6-11.48-3.61-14.13-5.25-16.91-3.44Z"/>
      <path class="cls-3" d="m3175.8,1898.03c-1.41,2.95-.45,7.31,2.04,9.05,2.49,1.73,5.25-.03,12.68-2.13,13.09-3.71,17.96-2.08,19.87-5.95,1.41-2.87.38-7.14-2.04-9.05-2.45-1.93-5.17-.54-16.32,2.22-11.68,2.89-14.8,2.87-16.23,5.86Z"/>
      <path class="cls-3" d="m2918.78,1916.48c-1.76,2.75-1.35,7.2.91,9.23,2.25,2.02,5.22.62,12.85-.55,13.44-2.06,18.08.16,20.45-3.45,1.76-2.67,1.26-7.04-.91-9.23-2.19-2.22-5.06-1.17-16.47.19-11.95,1.42-15.04,1.02-16.83,3.81Z"/>
      <path class="cls-3" d="m3177.41,1922.09c-2.46,2.15-3.31,6.54-1.71,9.12,1.6,2.57,4.83,2.06,12.49,3.07,13.49,1.78,17.32,5.21,20.6,2.41,2.43-2.08,3.18-6.4,1.71-9.12-1.49-2.75-4.53-2.54-15.86-4.43-11.87-1.97-14.73-3.23-17.22-1.05Z"/>
    </g>
    <path class="cls-3" d="m3029.76,2309.51c6.57-2.24,15.3-4.47,25.72-5.14,16.63-1.07,30.15,2.29,38.58,5.14,2.63-7.61,6.66-17.47,12.86-28.29,8.51-14.85,18.1-31.58,25.72-30.87,7.25.68,15.21,17.39,20.58,79.74,6.35,10.47,16.14,30.47,12.86,54.02-6.35,45.6-58.41,80.58-108.03,77.17-46.79-3.22-90.52-40.51-95.17-84.88-2.18-20.79,4.73-38.27,10.29-48.87,6.16-55.03,13.95-68.91,20.58-69.45,4.8-.39,9.5,6.16,18.01,18.01,9.13,12.71,14.65,24.68,18.01,33.44Z"/>
    <g>
      <path class="cls-3" d="m3031.76-15.49c6.57-2.24,15.3-4.47,25.72-5.14,16.63-1.07,30.15,2.29,38.58,5.14,2.63-7.61,6.66-17.47,12.86-28.29,8.51-14.85,18.1-31.58,25.72-30.87,7.25.68,15.21,17.39,20.58,79.74,6.35,10.47,16.14,30.47,12.86,54.02-6.35,45.6-58.41,80.58-108.03,77.17-46.79-3.22-90.52-40.51-95.17-84.88-2.18-20.79,4.73-38.27,10.29-48.87,6.16-55.03,13.95-68.91,20.58-69.45,4.8-.39,9.5,6.16,18.01,18.01,9.13,12.71,14.65,24.68,18.01,33.44Z"/>
      <path class="cls-3" d="m2920.79,21.39c-2.74,1.78-4.19,6.01-2.96,8.79,1.22,2.77,4.5,2.71,11.94,4.78,13.11,3.64,16.42,7.57,20.06,5.26,2.7-1.72,4.04-5.9,2.96-8.79-1.09-2.93-4.13-3.15-15.09-6.6-11.48-3.61-14.13-5.25-16.91-3.44Z"/>
      <path class="cls-3" d="m3177.8,38.03c-1.41,2.95-.45,7.31,2.04,9.05,2.49,1.73,5.25-.03,12.68-2.13,13.09-3.71,17.96-2.08,19.87-5.95,1.41-2.87.38-7.14-2.04-9.05-2.45-1.93-5.17-.54-16.32,2.22-11.68,2.89-14.8,2.87-16.23,5.86Z"/>
      <path class="cls-3" d="m2920.78,56.48c-1.76,2.75-1.35,7.2.91,9.23,2.25,2.02,5.22.62,12.85-.55,13.44-2.06,18.08.16,20.45-3.45,1.76-2.67,1.26-7.04-.91-9.23-2.19-2.22-5.06-1.17-16.47.19-11.95,1.42-15.04,1.02-16.83,3.81Z"/>
      <path class="cls-3" d="m3179.41,62.09c-2.46,2.15-3.31,6.54-1.71,9.12,1.6,2.57,4.83,2.06,12.49,3.07,13.49,1.78,17.32,5.21,20.6,2.41,2.43-2.08,3.18-6.4,1.71-9.12-1.49-2.75-4.53-2.54-15.86-4.43-11.87-1.97-14.73-3.23-17.22-1.05Z"/>
    </g>
    <g>
      <path class="cls-3" d="m3031.76,449.51c6.57-2.24,15.3-4.47,25.72-5.14,16.63-1.07,30.15,2.29,38.58,5.14,2.63-7.61,6.66-17.47,12.86-28.29,8.51-14.85,18.1-31.58,25.72-30.87,7.25.68,15.21,17.39,20.58,79.74,6.35,10.47,16.14,30.47,12.86,54.02-6.35,45.6-58.41,80.58-108.03,77.17-46.79-3.22-90.52-40.51-95.17-84.88-2.18-20.79,4.73-38.27,10.29-48.87,6.16-55.03,13.95-68.91,20.58-69.45,4.8-.39,9.5,6.16,18.01,18.01,9.13,12.71,14.65,24.68,18.01,33.44Z"/>
      <path class="cls-3" d="m2920.79,486.39c-2.74,1.78-4.19,6.01-2.96,8.79,1.22,2.77,4.5,2.71,11.94,4.78,13.11,3.64,16.42,7.57,20.06,5.26,2.7-1.72,4.04-5.9,2.96-8.79-1.09-2.93-4.13-3.15-15.09-6.6-11.48-3.61-14.13-5.25-16.91-3.44Z"/>
      <path class="cls-3" d="m3177.8,503.03c-1.41,2.95-.45,7.31,2.04,9.05,2.49,1.73,5.25-.03,12.68-2.13,13.09-3.71,17.96-2.08,19.87-5.95,1.41-2.87.38-7.14-2.04-9.05-2.45-1.93-5.17-.54-16.32,2.22-11.68,2.89-14.8,2.87-16.23,5.86Z"/>
      <path class="cls-3" d="m2920.78,521.48c-1.76,2.75-1.35,7.2.91,9.23,2.25,2.02,5.22.62,12.85-.55,13.44-2.06,18.08.16,20.45-3.45,1.76-2.67,1.26-7.04-.91-9.23-2.19-2.22-5.06-1.17-16.47.19-11.95,1.42-15.04,1.02-16.83,3.81Z"/>
      <path class="cls-3" d="m3179.41,527.09c-2.46,2.15-3.31,6.54-1.71,9.12,1.6,2.57,4.83,2.06,12.49,3.07,13.49,1.78,17.32,5.21,20.6,2.41,2.43-2.08,3.18-6.4,1.71-9.12-1.49-2.75-4.53-2.54-15.86-4.43-11.87-1.97-14.73-3.23-17.22-1.05Z"/>
    </g>
    <g>
      <path class="cls-3" d="m1833.76,918.51c6.57-2.24,15.3-4.47,25.72-5.14,16.63-1.07,30.15,2.29,38.58,5.14,2.63-7.61,6.66-17.47,12.86-28.29,8.51-14.85,18.1-31.58,25.72-30.87,7.25.68,15.21,17.39,20.58,79.74,6.35,10.47,16.14,30.47,12.86,54.02-6.35,45.6-58.41,80.58-108.03,77.17-46.79-3.22-90.52-40.51-95.17-84.88-2.18-20.79,4.73-38.27,10.29-48.87,6.16-55.03,13.95-68.91,20.58-69.45,4.8-.39,9.5,6.16,18.01,18.01,9.13,12.71,14.65,24.68,18.01,33.44Z"/>
      <path class="cls-3" d="m1722.79,955.39c-2.74,1.78-4.19,6.01-2.96,8.79,1.22,2.77,4.5,2.71,11.94,4.78,13.11,3.64,16.42,7.57,20.06,5.26,2.7-1.72,4.04-5.9,2.96-8.79-1.09-2.93-4.13-3.15-15.09-6.6-11.48-3.61-14.13-5.25-16.91-3.44Z"/>
      <path class="cls-3" d="m1979.8,972.03c-1.41,2.95-.45,7.31,2.04,9.05,2.49,1.73,5.25-.03,12.68-2.13,13.09-3.71,17.96-2.08,19.87-5.95,1.41-2.87.38-7.14-2.04-9.05-2.45-1.93-5.17-.54-16.32,2.22-11.68,2.89-14.8,2.87-16.23,5.86Z"/>
      <path class="cls-3" d="m1722.78,990.48c-1.76,2.75-1.35,7.2.91,9.23,2.25,2.02,5.22.62,12.85-.55,13.44-2.06,18.08.16,20.45-3.45,1.76-2.67,1.26-7.04-.91-9.23-2.19-2.22-5.06-1.17-16.47.19-11.95,1.42-15.04,1.02-16.83,3.81Z"/>
      <path class="cls-3" d="m1981.41,996.09c-2.46,2.15-3.31,6.54-1.71,9.12,1.6,2.57,4.83,2.06,12.49,3.07,13.49,1.78,17.32,5.21,20.6,2.41,2.43-2.08,3.18-6.4,1.71-9.12-1.49-2.75-4.53-2.54-15.86-4.43-11.87-1.97-14.73-3.23-17.22-1.05Z"/>
    </g>
    <g>
      <path class="cls-3" d="m1834.76,1383.51c6.57-2.24,15.3-4.47,25.72-5.14,16.63-1.07,30.15,2.29,38.58,5.14,2.63-7.61,6.66-17.47,12.86-28.29,8.51-14.85,18.1-31.58,25.72-30.87,7.25.68,15.21,17.39,20.58,79.74,6.35,10.47,16.14,30.47,12.86,54.02-6.35,45.6-58.41,80.58-108.03,77.17-46.79-3.22-90.52-40.51-95.17-84.88-2.18-20.79,4.73-38.27,10.29-48.87,6.16-55.03,13.95-68.91,20.58-69.45,4.8-.39,9.5,6.16,18.01,18.01,9.13,12.71,14.65,24.68,18.01,33.44Z"/>
      <path class="cls-3" d="m1723.79,1420.39c-2.74,1.78-4.19,6.01-2.96,8.79,1.22,2.77,4.5,2.71,11.94,4.78,13.11,3.64,16.42,7.57,20.06,5.26,2.7-1.72,4.04-5.9,2.96-8.79-1.09-2.93-4.13-3.15-15.09-6.6-11.48-3.61-14.13-5.25-16.91-3.44Z"/>
      <path class="cls-3" d="m1980.8,1437.03c-1.41,2.95-.45,7.31,2.04,9.05,2.49,1.73,5.25-.03,12.68-2.13,13.09-3.71,17.96-2.08,19.87-5.95,1.41-2.87.38-7.14-2.04-9.05-2.45-1.93-5.17-.54-16.32,2.22-11.68,2.89-14.8,2.87-16.23,5.86Z"/>
      <path class="cls-3" d="m1723.78,1455.48c-1.76,2.75-1.35,7.2.91,9.23,2.25,2.02,5.22.62,12.85-.55,13.44-2.06,18.08.16,20.45-3.45,1.76-2.67,1.26-7.04-.91-9.23-2.19-2.22-5.06-1.17-16.47.19-11.95,1.42-15.04,1.02-16.83,3.81Z"/>
      <path class="cls-3" d="m1982.41,1461.09c-2.46,2.15-3.31,6.54-1.71,9.12,1.6,2.57,4.83,2.06,12.49,3.07,13.49,1.78,17.32,5.21,20.6,2.41,2.43-2.08,3.18-6.4,1.71-9.12-1.49-2.75-4.53-2.54-15.86-4.43-11.87-1.97-14.73-3.23-17.22-1.05Z"/>
    </g>
    <g>
      <path class="cls-3" d="m1834.76,1848.51c6.57-2.24,15.3-4.47,25.72-5.14,16.63-1.07,30.15,2.29,38.58,5.14,2.63-7.61,6.66-17.47,12.86-28.29,8.51-14.85,18.1-31.58,25.72-30.87,7.25.68,15.21,17.39,20.58,79.74,6.35,10.47,16.14,30.47,12.86,54.02-6.35,45.6-58.41,80.58-108.03,77.17-46.79-3.22-90.52-40.51-95.17-84.88-2.18-20.79,4.73-38.27,10.29-48.87,6.16-55.03,13.95-68.91,20.58-69.45,4.8-.39,9.5,6.16,18.01,18.01,9.13,12.71,14.65,24.68,18.01,33.44Z"/>
      <path class="cls-3" d="m1723.79,1885.39c-2.74,1.78-4.19,6.01-2.96,8.79,1.22,2.77,4.5,2.71,11.94,4.78,13.11,3.64,16.42,7.57,20.06,5.26,2.7-1.72,4.04-5.9,2.96-8.79-1.09-2.93-4.13-3.15-15.09-6.6-11.48-3.61-14.13-5.25-16.91-3.44Z"/>
      <path class="cls-3" d="m1980.8,1902.03c-1.41,2.95-.45,7.31,2.04,9.05,2.49,1.73,5.25-.03,12.68-2.13,13.09-3.71,17.96-2.08,19.87-5.95,1.41-2.87.38-7.14-2.04-9.05-2.45-1.93-5.17-.54-16.32,2.22-11.68,2.89-14.8,2.87-16.23,5.86Z"/>
      <path class="cls-3" d="m1723.78,1920.48c-1.76,2.75-1.35,7.2.91,9.23,2.25,2.02,5.22.62,12.85-.55,13.44-2.06,18.08.16,20.45-3.45,1.76-2.67,1.26-7.04-.91-9.23-2.19-2.22-5.06-1.17-16.47.19-11.95,1.42-15.04,1.02-16.83,3.81Z"/>
      <path class="cls-3" d="m1982.41,1926.09c-2.46,2.15-3.31,6.54-1.71,9.12,1.6,2.57,4.83,2.06,12.49,3.07,13.49,1.78,17.32,5.21,20.6,2.41,2.43-2.08,3.18-6.4,1.71-9.12-1.49-2.75-4.53-2.54-15.86-4.43-11.87-1.97-14.73-3.23-17.22-1.05Z"/>
    </g>
    <path class="cls-3" d="m1834.76,2313.51c6.57-2.24,15.3-4.47,25.72-5.14,16.63-1.07,30.15,2.29,38.58,5.14,2.63-7.61,6.66-17.47,12.86-28.29,8.51-14.85,18.1-31.58,25.72-30.87,7.25.68,15.21,17.39,20.58,79.74,6.35,10.47,16.14,30.47,12.86,54.02-6.35,45.6-58.41,80.58-108.03,77.17-46.79-3.22-90.52-40.51-95.17-84.88-2.18-20.79,4.73-38.27,10.29-48.87,6.16-55.03,13.95-68.91,20.58-69.45,4.8-.39,9.5,6.16,18.01,18.01,9.13,12.71,14.65,24.68,18.01,33.44Z"/>
    <g>
      <path class="cls-3" d="m1836.76-11.49c6.57-2.24,15.3-4.47,25.72-5.14,16.63-1.07,30.15,2.29,38.58,5.14,2.63-7.61,6.66-17.47,12.86-28.29,8.51-14.85,18.1-31.58,25.72-30.87,7.25.68,15.21,17.39,20.58,79.74,6.35,10.47,16.14,30.47,12.86,54.02-6.35,45.6-58.41,80.58-108.03,77.17-46.79-3.22-90.52-40.51-95.17-84.88-2.18-20.79,4.73-38.27,10.29-48.87,6.16-55.03,13.95-68.91,20.58-69.45,4.8-.39,9.5,6.16,18.01,18.01,9.13,12.71,14.65,24.68,18.01,33.44Z"/>
      <path class="cls-3" d="m1725.79,25.39c-2.74,1.78-4.19,6.01-2.96,8.79,1.22,2.77,4.5,2.71,11.94,4.78,13.11,3.64,16.42,7.57,20.06,5.26,2.7-1.72,4.04-5.9,2.96-8.79-1.09-2.93-4.13-3.15-15.09-6.6-11.48-3.61-14.13-5.25-16.91-3.44Z"/>
      <path class="cls-3" d="m1982.8,42.03c-1.41,2.95-.45,7.31,2.04,9.05,2.49,1.73,5.25-.03,12.68-2.13,13.09-3.71,17.96-2.08,19.87-5.95,1.41-2.87.38-7.14-2.04-9.05-2.45-1.93-5.17-.54-16.32,2.22-11.68,2.89-14.8,2.87-16.23,5.86Z"/>
      <path class="cls-3" d="m1725.78,60.48c-1.76,2.75-1.35,7.2.91,9.23,2.25,2.02,5.22.62,12.85-.55,13.44-2.06,18.08.16,20.45-3.45,1.76-2.67,1.26-7.04-.91-9.23-2.19-2.22-5.06-1.17-16.47.19-11.95,1.42-15.04,1.02-16.83,3.81Z"/>
      <path class="cls-3" d="m1984.41,66.09c-2.46,2.15-3.31,6.54-1.71,9.12,1.6,2.57,4.83,2.06,12.49,3.07,13.49,1.78,17.32,5.21,20.6,2.41,2.43-2.08,3.18-6.4,1.71-9.12-1.49-2.75-4.53-2.54-15.86-4.43-11.87-1.97-14.73-3.23-17.22-1.05Z"/>
    </g>
    <g>
      <path class="cls-3" d="m1836.76,453.51c6.57-2.24,15.3-4.47,25.72-5.14,16.63-1.07,30.15,2.29,38.58,5.14,2.63-7.61,6.66-17.47,12.86-28.29,8.51-14.85,18.1-31.58,25.72-30.87,7.25.68,15.21,17.39,20.58,79.74,6.35,10.47,16.14,30.47,12.86,54.02-6.35,45.6-58.41,80.58-108.03,77.17-46.79-3.22-90.52-40.51-95.17-84.88-2.18-20.79,4.73-38.27,10.29-48.87,6.16-55.03,13.95-68.91,20.58-69.45,4.8-.39,9.5,6.16,18.01,18.01,9.13,12.71,14.65,24.68,18.01,33.44Z"/>
      <path class="cls-3" d="m1725.79,490.39c-2.74,1.78-4.19,6.01-2.96,8.79,1.22,2.77,4.5,2.71,11.94,4.78,13.11,3.64,16.42,7.57,20.06,5.26,2.7-1.72,4.04-5.9,2.96-8.79-1.09-2.93-4.13-3.15-15.09-6.6-11.48-3.61-14.13-5.25-16.91-3.44Z"/>
      <path class="cls-3" d="m1982.8,507.03c-1.41,2.95-.45,7.31,2.04,9.05,2.49,1.73,5.25-.03,12.68-2.13,13.09-3.71,17.96-2.08,19.87-5.95,1.41-2.87.38-7.14-2.04-9.05-2.45-1.93-5.17-.54-16.32,2.22-11.68,2.89-14.8,2.87-16.23,5.86Z"/>
      <path class="cls-3" d="m1725.78,525.48c-1.76,2.75-1.35,7.2.91,9.23,2.25,2.02,5.22.62,12.85-.55,13.44-2.06,18.08.16,20.45-3.45,1.76-2.67,1.26-7.04-.91-9.23-2.19-2.22-5.06-1.17-16.47.19-11.95,1.42-15.04,1.02-16.83,3.81Z"/>
      <path class="cls-3" d="m1984.41,531.09c-2.46,2.15-3.31,6.54-1.71,9.12,1.6,2.57,4.83,2.06,12.49,3.07,13.49,1.78,17.32,5.21,20.6,2.41,2.43-2.08,3.18-6.4,1.71-9.12-1.49-2.75-4.53-2.54-15.86-4.43-11.87-1.97-14.73-3.23-17.22-1.05Z"/>
    </g>
    <g>
      <path class="cls-3" d="m2449.76,1136.51c6.57-2.24,15.3-4.47,25.72-5.14,16.63-1.07,30.15,2.29,38.58,5.14,2.63-7.61,6.66-17.47,12.86-28.29,8.51-14.85,18.1-31.58,25.72-30.87,7.25.68,15.21,17.39,20.58,79.74,6.35,10.47,16.14,30.47,12.86,54.02-6.35,45.6-58.41,80.58-108.03,77.17-46.79-3.22-90.52-40.51-95.17-84.88-2.18-20.79,4.73-38.27,10.29-48.87,6.16-55.03,13.95-68.91,20.58-69.45,4.8-.39,9.5,6.16,18.01,18.01,9.13,12.71,14.65,24.68,18.01,33.44Z"/>
      <path class="cls-3" d="m2338.79,1173.39c-2.74,1.78-4.19,6.01-2.96,8.79,1.22,2.77,4.5,2.71,11.94,4.78,13.11,3.64,16.42,7.57,20.06,5.26,2.7-1.72,4.04-5.9,2.96-8.79-1.09-2.93-4.13-3.15-15.09-6.6-11.48-3.61-14.13-5.25-16.91-3.44Z"/>
      <path class="cls-3" d="m2595.8,1190.03c-1.41,2.95-.45,7.31,2.04,9.05,2.49,1.73,5.25-.03,12.68-2.13,13.09-3.71,17.96-2.08,19.87-5.95,1.41-2.87.38-7.14-2.04-9.05-2.45-1.93-5.17-.54-16.32,2.22-11.68,2.89-14.8,2.87-16.23,5.86Z"/>
      <path class="cls-3" d="m2338.78,1208.48c-1.76,2.75-1.35,7.2.91,9.23,2.25,2.02,5.22.62,12.85-.55,13.44-2.06,18.08.16,20.45-3.45,1.76-2.67,1.26-7.04-.91-9.23-2.19-2.22-5.06-1.17-16.47.19-11.95,1.42-15.04,1.02-16.83,3.81Z"/>
      <path class="cls-3" d="m2597.41,1214.09c-2.46,2.15-3.31,6.54-1.71,9.12,1.6,2.57,4.83,2.06,12.49,3.07,13.49,1.78,17.32,5.21,20.6,2.41,2.43-2.08,3.18-6.4,1.71-9.12-1.49-2.75-4.53-2.54-15.86-4.43-11.87-1.97-14.73-3.23-17.22-1.05Z"/>
    </g>
    <g>
      <path class="cls-3" d="m2450.76,1601.51c6.57-2.24,15.3-4.47,25.72-5.14,16.63-1.07,30.15,2.29,38.58,5.14,2.63-7.61,6.66-17.47,12.86-28.29,8.51-14.85,18.1-31.58,25.72-30.87,7.25.68,15.21,17.39,20.58,79.74,6.35,10.47,16.14,30.47,12.86,54.02-6.35,45.6-58.41,80.58-108.03,77.17-46.79-3.22-90.52-40.51-95.17-84.88-2.18-20.79,4.73-38.27,10.29-48.87,6.16-55.03,13.95-68.91,20.58-69.45,4.8-.39,9.5,6.16,18.01,18.01,9.13,12.71,14.65,24.68,18.01,33.44Z"/>
      <path class="cls-3" d="m2339.79,1638.39c-2.74,1.78-4.19,6.01-2.96,8.79,1.22,2.77,4.5,2.71,11.94,4.78,13.11,3.64,16.42,7.57,20.06,5.26,2.7-1.72,4.04-5.9,2.96-8.79-1.09-2.93-4.13-3.15-15.09-6.6-11.48-3.61-14.13-5.25-16.91-3.44Z"/>
      <path class="cls-3" d="m2596.8,1655.03c-1.41,2.95-.45,7.31,2.04,9.05,2.49,1.73,5.25-.03,12.68-2.13,13.09-3.71,17.96-2.08,19.87-5.95,1.41-2.87.38-7.14-2.04-9.05-2.45-1.93-5.17-.54-16.32,2.22-11.68,2.89-14.8,2.87-16.23,5.86Z"/>
      <path class="cls-3" d="m2339.78,1673.48c-1.76,2.75-1.35,7.2.91,9.23,2.25,2.02,5.22.62,12.85-.55,13.44-2.06,18.08.16,20.45-3.45,1.76-2.67,1.26-7.04-.91-9.23-2.19-2.22-5.06-1.17-16.47.19-11.95,1.42-15.04,1.02-16.83,3.81Z"/>
      <path class="cls-3" d="m2598.41,1679.09c-2.46,2.15-3.31,6.54-1.71,9.12,1.6,2.57,4.83,2.06,12.49,3.07,13.49,1.78,17.32,5.21,20.6,2.41,2.43-2.08,3.18-6.4,1.71-9.12-1.49-2.75-4.53-2.54-15.86-4.43-11.87-1.97-14.73-3.23-17.22-1.05Z"/>
    </g>
    <g>
      <path class="cls-3" d="m2450.76,2066.51c6.57-2.24,15.3-4.47,25.72-5.14,16.63-1.07,30.15,2.29,38.58,5.14,2.63-7.61,6.66-17.47,12.86-28.29,8.51-14.85,18.1-31.58,25.72-30.87,7.25.68,15.21,17.39,20.58,79.74,6.35,10.47,16.14,30.47,12.86,54.02-6.35,45.6-58.41,80.58-108.03,77.17-46.79-3.22-90.52-40.51-95.17-84.88-2.18-20.79,4.73-38.27,10.29-48.87,6.16-55.03,13.95-68.91,20.58-69.45,4.8-.39,9.5,6.16,18.01,18.01,9.13,12.71,14.65,24.68,18.01,33.44Z"/>
      <path class="cls-3" d="m2339.79,2103.39c-2.74,1.78-4.19,6.01-2.96,8.79,1.22,2.77,4.5,2.71,11.94,4.78,13.11,3.64,16.42,7.57,20.06,5.26,2.7-1.72,4.04-5.9,2.96-8.79-1.09-2.93-4.13-3.15-15.09-6.6-11.48-3.61-14.13-5.25-16.91-3.44Z"/>
      <path class="cls-3" d="m2596.8,2120.03c-1.41,2.95-.45,7.31,2.04,9.05,2.49,1.73,5.25-.03,12.68-2.13,13.09-3.71,17.96-2.08,19.87-5.95,1.41-2.87.38-7.14-2.04-9.05-2.45-1.93-5.17-.54-16.32,2.22-11.68,2.89-14.8,2.87-16.23,5.86Z"/>
      <path class="cls-3" d="m2339.78,2138.48c-1.76,2.75-1.35,7.2.91,9.23,2.25,2.02,5.22.62,12.85-.55,13.44-2.06,18.08.16,20.45-3.45,1.76-2.67,1.26-7.04-.91-9.23-2.19-2.22-5.06-1.17-16.47.19-11.95,1.42-15.04,1.02-16.83,3.81Z"/>
      <path class="cls-3" d="m2598.41,2144.09c-2.46,2.15-3.31,6.54-1.71,9.12,1.6,2.57,4.83,2.06,12.49,3.07,13.49,1.78,17.32,5.21,20.6,2.41,2.43-2.08,3.18-6.4,1.71-9.12-1.49-2.75-4.53-2.54-15.86-4.43-11.87-1.97-14.73-3.23-17.22-1.05Z"/>
    </g>
    <g>
      <path class="cls-3" d="m2452.76,206.51c6.57-2.24,15.3-4.47,25.72-5.14,16.63-1.07,30.15,2.29,38.58,5.14,2.63-7.61,6.66-17.47,12.86-28.29,8.51-14.85,18.1-31.58,25.72-30.87,7.25.68,15.21,17.39,20.58,79.74,6.35,10.47,16.14,30.47,12.86,54.02-6.35,45.6-58.41,80.58-108.03,77.17-46.79-3.22-90.52-40.51-95.17-84.88-2.18-20.79,4.73-38.27,10.29-48.87,6.16-55.03,13.95-68.91,20.58-69.45,4.8-.39,9.5,6.16,18.01,18.01,9.13,12.71,14.65,24.68,18.01,33.44Z"/>
      <path class="cls-3" d="m2341.79,243.39c-2.74,1.78-4.19,6.01-2.96,8.79,1.22,2.77,4.5,2.71,11.94,4.78,13.11,3.64,16.42,7.57,20.06,5.26,2.7-1.72,4.04-5.9,2.96-8.79-1.09-2.93-4.13-3.15-15.09-6.6-11.48-3.61-14.13-5.25-16.91-3.44Z"/>
      <path class="cls-3" d="m2598.8,260.03c-1.41,2.95-.45,7.31,2.04,9.05,2.49,1.73,5.25-.03,12.68-2.13,13.09-3.71,17.96-2.08,19.87-5.95,1.41-2.87.38-7.14-2.04-9.05-2.45-1.93-5.17-.54-16.32,2.22-11.68,2.89-14.8,2.87-16.23,5.86Z"/>
      <path class="cls-3" d="m2341.78,278.48c-1.76,2.75-1.35,7.2.91,9.23,2.25,2.02,5.22.62,12.85-.55,13.44-2.06,18.08.16,20.45-3.45,1.76-2.67,1.26-7.04-.91-9.23-2.19-2.22-5.06-1.17-16.47.19-11.95,1.42-15.04,1.02-16.83,3.81Z"/>
      <path class="cls-3" d="m2600.41,284.09c-2.46,2.15-3.31,6.54-1.71,9.12,1.6,2.57,4.83,2.06,12.49,3.07,13.49,1.78,17.32,5.21,20.6,2.41,2.43-2.08,3.18-6.4,1.71-9.12-1.49-2.75-4.53-2.54-15.86-4.43-11.87-1.97-14.73-3.23-17.22-1.05Z"/>
    </g>
    <g>
      <path class="cls-3" d="m2452.76,671.51c6.57-2.24,15.3-4.47,25.72-5.14,16.63-1.07,30.15,2.29,38.58,5.14,2.63-7.61,6.66-17.47,12.86-28.29,8.51-14.85,18.1-31.58,25.72-30.87,7.25.68,15.21,17.39,20.58,79.74,6.35,10.47,16.14,30.47,12.86,54.02-6.35,45.6-58.41,80.58-108.03,77.17-46.79-3.22-90.52-40.51-95.17-84.88-2.18-20.79,4.73-38.27,10.29-48.87,6.16-55.03,13.95-68.91,20.58-69.45,4.8-.39,9.5,6.16,18.01,18.01,9.13,12.71,14.65,24.68,18.01,33.44Z"/>
      <path class="cls-3" d="m2341.79,708.39c-2.74,1.78-4.19,6.01-2.96,8.79,1.22,2.77,4.5,2.71,11.94,4.78,13.11,3.64,16.42,7.57,20.06,5.26,2.7-1.72,4.04-5.9,2.96-8.79-1.09-2.93-4.13-3.15-15.09-6.6-11.48-3.61-14.13-5.25-16.91-3.44Z"/>
      <path class="cls-3" d="m2598.8,725.03c-1.41,2.95-.45,7.31,2.04,9.05,2.49,1.73,5.25-.03,12.68-2.13,13.09-3.71,17.96-2.08,19.87-5.95,1.41-2.87.38-7.14-2.04-9.05-2.45-1.93-5.17-.54-16.32,2.22-11.68,2.89-14.8,2.87-16.23,5.86Z"/>
      <path class="cls-3" d="m2341.78,743.48c-1.76,2.75-1.35,7.2.91,9.23,2.25,2.02,5.22.62,12.85-.55,13.44-2.06,18.08.16,20.45-3.45,1.76-2.67,1.26-7.04-.91-9.23-2.19-2.22-5.06-1.17-16.47.19-11.95,1.42-15.04,1.02-16.83,3.81Z"/>
      <path class="cls-3" d="m2600.41,749.09c-2.46,2.15-3.31,6.54-1.71,9.12,1.6,2.57,4.83,2.06,12.49,3.07,13.49,1.78,17.32,5.21,20.6,2.41,2.43-2.08,3.18-6.4,1.71-9.12-1.49-2.75-4.53-2.54-15.86-4.43-11.87-1.97-14.73-3.23-17.22-1.05Z"/>
    </g>
    <g>
      <path class="cls-3" d="m561.76,914.51c6.57-2.24,15.3-4.47,25.72-5.14,16.63-1.07,30.15,2.29,38.58,5.14,2.63-7.61,6.66-17.47,12.86-28.29,8.51-14.85,18.1-31.58,25.72-30.87,7.25.68,15.21,17.39,20.58,79.74,6.35,10.47,16.14,30.47,12.86,54.02-6.35,45.6-58.41,80.58-108.03,77.17-46.79-3.22-90.52-40.51-95.17-84.88-2.18-20.79,4.73-38.27,10.29-48.87,6.16-55.03,13.95-68.91,20.58-69.45,4.8-.39,9.5,6.16,18.01,18.01,9.13,12.71,14.65,24.68,18.01,33.44Z"/>
      <path class="cls-3" d="m450.79,951.39c-2.74,1.78-4.19,6.01-2.96,8.79,1.22,2.77,4.5,2.71,11.94,4.78,13.11,3.64,16.42,7.57,20.06,5.26,2.7-1.72,4.04-5.9,2.96-8.79-1.09-2.93-4.13-3.15-15.09-6.6-11.48-3.61-14.13-5.25-16.91-3.44Z"/>
      <path class="cls-3" d="m707.8,968.03c-1.41,2.95-.45,7.31,2.04,9.05,2.49,1.73,5.25-.03,12.68-2.13,13.09-3.71,17.96-2.08,19.87-5.95,1.41-2.87.38-7.14-2.04-9.05-2.45-1.93-5.17-.54-16.32,2.22-11.68,2.89-14.8,2.87-16.23,5.86Z"/>
      <path class="cls-3" d="m450.78,986.48c-1.76,2.75-1.35,7.2.91,9.23,2.25,2.02,5.22.62,12.85-.55,13.44-2.06,18.08.16,20.45-3.45,1.76-2.67,1.26-7.04-.91-9.23-2.19-2.22-5.06-1.17-16.47.19-11.95,1.42-15.04,1.02-16.83,3.81Z"/>
      <path class="cls-3" d="m709.41,992.09c-2.46,2.15-3.31,6.54-1.71,9.12,1.6,2.57,4.83,2.06,12.49,3.07,13.49,1.78,17.32,5.21,20.6,2.41,2.43-2.08,3.18-6.4,1.71-9.12-1.49-2.75-4.53-2.54-15.86-4.43-11.87-1.97-14.73-3.23-17.22-1.05Z"/>
    </g>
    <g>
      <path class="cls-3" d="m562.76,1379.51c6.57-2.24,15.3-4.47,25.72-5.14,16.63-1.07,30.15,2.29,38.58,5.14,2.63-7.61,6.66-17.47,12.86-28.29,8.51-14.85,18.1-31.58,25.72-30.87,7.25.68,15.21,17.39,20.58,79.74,6.35,10.47,16.14,30.47,12.86,54.02-6.35,45.6-58.41,80.58-108.03,77.17-46.79-3.22-90.52-40.51-95.17-84.88-2.18-20.79,4.73-38.27,10.29-48.87,6.16-55.03,13.95-68.91,20.58-69.45,4.8-.39,9.5,6.16,18.01,18.01,9.13,12.71,14.65,24.68,18.01,33.44Z"/>
      <path class="cls-3" d="m451.79,1416.39c-2.74,1.78-4.19,6.01-2.96,8.79,1.22,2.77,4.5,2.71,11.94,4.78,13.11,3.64,16.42,7.57,20.06,5.26,2.7-1.72,4.04-5.9,2.96-8.79-1.09-2.93-4.13-3.15-15.09-6.6-11.48-3.61-14.13-5.25-16.91-3.44Z"/>
      <path class="cls-3" d="m708.8,1433.03c-1.41,2.95-.45,7.31,2.04,9.05,2.49,1.73,5.25-.03,12.68-2.13,13.09-3.71,17.96-2.08,19.87-5.95,1.41-2.87.38-7.14-2.04-9.05-2.45-1.93-5.17-.54-16.32,2.22-11.68,2.89-14.8,2.87-16.23,5.86Z"/>
      <path class="cls-3" d="m451.78,1451.48c-1.76,2.75-1.35,7.2.91,9.23,2.25,2.02,5.22.62,12.85-.55,13.44-2.06,18.08.16,20.45-3.45,1.76-2.67,1.26-7.04-.91-9.23-2.19-2.22-5.06-1.17-16.47.19-11.95,1.42-15.04,1.02-16.83,3.81Z"/>
      <path class="cls-3" d="m710.41,1457.09c-2.46,2.15-3.31,6.54-1.71,9.12,1.6,2.57,4.83,2.06,12.49,3.07,13.49,1.78,17.32,5.21,20.6,2.41,2.43-2.08,3.18-6.4,1.71-9.12-1.49-2.75-4.53-2.54-15.86-4.43-11.87-1.97-14.73-3.23-17.22-1.05Z"/>
    </g>
    <g>
      <path class="cls-3" d="m562.76,1844.51c6.57-2.24,15.3-4.47,25.72-5.14,16.63-1.07,30.15,2.29,38.58,5.14,2.63-7.61,6.66-17.47,12.86-28.29,8.51-14.85,18.1-31.58,25.72-30.87,7.25.68,15.21,17.39,20.58,79.74,6.35,10.47,16.14,30.47,12.86,54.02-6.35,45.6-58.41,80.58-108.03,77.17-46.79-3.22-90.52-40.51-95.17-84.88-2.18-20.79,4.73-38.27,10.29-48.87,6.16-55.03,13.95-68.91,20.58-69.45,4.8-.39,9.5,6.16,18.01,18.01,9.13,12.71,14.65,24.68,18.01,33.44Z"/>
      <path class="cls-3" d="m451.79,1881.39c-2.74,1.78-4.19,6.01-2.96,8.79,1.22,2.77,4.5,2.71,11.94,4.78,13.11,3.64,16.42,7.57,20.06,5.26,2.7-1.72,4.04-5.9,2.96-8.79-1.09-2.93-4.13-3.15-15.09-6.6-11.48-3.61-14.13-5.25-16.91-3.44Z"/>
      <path class="cls-3" d="m708.8,1898.03c-1.41,2.95-.45,7.31,2.04,9.05,2.49,1.73,5.25-.03,12.68-2.13,13.09-3.71,17.96-2.08,19.87-5.95,1.41-2.87.38-7.14-2.04-9.05-2.45-1.93-5.17-.54-16.32,2.22-11.68,2.89-14.8,2.87-16.23,5.86Z"/>
      <path class="cls-3" d="m451.78,1916.48c-1.76,2.75-1.35,7.2.91,9.23,2.25,2.02,5.22.62,12.85-.55,13.44-2.06,18.08.16,20.45-3.45,1.76-2.67,1.26-7.04-.91-9.23-2.19-2.22-5.06-1.17-16.47.19-11.95,1.42-15.04,1.02-16.83,3.81Z"/>
      <path class="cls-3" d="m710.41,1922.09c-2.46,2.15-3.31,6.54-1.71,9.12,1.6,2.57,4.83,2.06,12.49,3.07,13.49,1.78,17.32,5.21,20.6,2.41,2.43-2.08,3.18-6.4,1.71-9.12-1.49-2.75-4.53-2.54-15.86-4.43-11.87-1.97-14.73-3.23-17.22-1.05Z"/>
    </g>
    <path class="cls-3" d="m562.76,2309.51c6.57-2.24,15.3-4.47,25.72-5.14,16.63-1.07,30.15,2.29,38.58,5.14,2.63-7.61,6.66-17.47,12.86-28.29,8.51-14.85,18.1-31.58,25.72-30.87,7.25.68,15.21,17.39,20.58,79.74,6.35,10.47,16.14,30.47,12.86,54.02-6.35,45.6-58.41,80.58-108.03,77.17-46.79-3.22-90.52-40.51-95.17-84.88-2.18-20.79,4.73-38.27,10.29-48.87,6.16-55.03,13.95-68.91,20.58-69.45,4.8-.39,9.5,6.16,18.01,18.01,9.13,12.71,14.65,24.68,18.01,33.44Z"/>
    <g>
      <path class="cls-3" d="m564.76-15.49c6.57-2.24,15.3-4.47,25.72-5.14,16.63-1.07,30.15,2.29,38.58,5.14,2.63-7.61,6.66-17.47,12.86-28.29,8.51-14.85,18.1-31.58,25.72-30.87,7.25.68,15.21,17.39,20.58,79.74,6.35,10.47,16.14,30.47,12.86,54.02-6.35,45.6-58.41,80.58-108.03,77.17-46.79-3.22-90.52-40.51-95.17-84.88-2.18-20.79,4.73-38.27,10.29-48.87,6.16-55.03,13.95-68.91,20.58-69.45,4.8-.39,9.5,6.16,18.01,18.01,9.13,12.71,14.65,24.68,18.01,33.44Z"/>
      <path class="cls-3" d="m453.79,21.39c-2.74,1.78-4.19,6.01-2.96,8.79,1.22,2.77,4.5,2.71,11.94,4.78,13.11,3.64,16.42,7.57,20.06,5.26,2.7-1.72,4.04-5.9,2.96-8.79-1.09-2.93-4.13-3.15-15.09-6.6-11.48-3.61-14.13-5.25-16.91-3.44Z"/>
      <path class="cls-3" d="m710.8,38.03c-1.41,2.95-.45,7.31,2.04,9.05,2.49,1.73,5.25-.03,12.68-2.13,13.09-3.71,17.96-2.08,19.87-5.95,1.41-2.87.38-7.14-2.04-9.05-2.45-1.93-5.17-.54-16.32,2.22-11.68,2.89-14.8,2.87-16.23,5.86Z"/>
      <path class="cls-3" d="m453.78,56.48c-1.76,2.75-1.35,7.2.91,9.23,2.25,2.02,5.22.62,12.85-.55,13.44-2.06,18.08.16,20.45-3.45,1.76-2.67,1.26-7.04-.91-9.23-2.19-2.22-5.06-1.17-16.47.19-11.95,1.42-15.04,1.02-16.83,3.81Z"/>
      <path class="cls-3" d="m712.41,62.09c-2.46,2.15-3.31,6.54-1.71,9.12,1.6,2.57,4.83,2.06,12.49,3.07,13.49,1.78,17.32,5.21,20.6,2.41,2.43-2.08,3.18-6.4,1.71-9.12-1.49-2.75-4.53-2.54-15.86-4.43-11.87-1.97-14.73-3.23-17.22-1.05Z"/>
    </g>
    <g>
      <path class="cls-3" d="m564.76,449.51c6.57-2.24,15.3-4.47,25.72-5.14,16.63-1.07,30.15,2.29,38.58,5.14,2.63-7.61,6.66-17.47,12.86-28.29,8.51-14.85,18.1-31.58,25.72-30.87,7.25.68,15.21,17.39,20.58,79.74,6.35,10.47,16.14,30.47,12.86,54.02-6.35,45.6-58.41,80.58-108.03,77.17-46.79-3.22-90.52-40.51-95.17-84.88-2.18-20.79,4.73-38.27,10.29-48.87,6.16-55.03,13.95-68.91,20.58-69.45,4.8-.39,9.5,6.16,18.01,18.01,9.13,12.71,14.65,24.68,18.01,33.44Z"/>
      <path class="cls-3" d="m453.79,486.39c-2.74,1.78-4.19,6.01-2.96,8.79,1.22,2.77,4.5,2.71,11.94,4.78,13.11,3.64,16.42,7.57,20.06,5.26,2.7-1.72,4.04-5.9,2.96-8.79-1.09-2.93-4.13-3.15-15.09-6.6-11.48-3.61-14.13-5.25-16.91-3.44Z"/>
      <path class="cls-3" d="m710.8,503.03c-1.41,2.95-.45,7.31,2.04,9.05,2.49,1.73,5.25-.03,12.68-2.13,13.09-3.71,17.96-2.08,19.87-5.95,1.41-2.87.38-7.14-2.04-9.05-2.45-1.93-5.17-.54-16.32,2.22-11.68,2.89-14.8,2.87-16.23,5.86Z"/>
      <path class="cls-3" d="m453.78,521.48c-1.76,2.75-1.35,7.2.91,9.23,2.25,2.02,5.22.62,12.85-.55,13.44-2.06,18.08.16,20.45-3.45,1.76-2.67,1.26-7.04-.91-9.23-2.19-2.22-5.06-1.17-16.47.19-11.95,1.42-15.04,1.02-16.83,3.81Z"/>
      <path class="cls-3" d="m712.41,527.09c-2.46,2.15-3.31,6.54-1.71,9.12,1.6,2.57,4.83,2.06,12.49,3.07,13.49,1.78,17.32,5.21,20.6,2.41,2.43-2.08,3.18-6.4,1.71-9.12-1.49-2.75-4.53-2.54-15.86-4.43-11.87-1.97-14.73-3.23-17.22-1.05Z"/>
    </g>
    <g>
      <path class="cls-3" d="m-17.24,1136.51c6.57-2.24,15.3-4.47,25.72-5.14,16.63-1.07,30.15,2.29,38.58,5.14,2.63-7.61,6.66-17.47,12.86-28.29,8.51-14.85,18.1-31.58,25.72-30.87,7.25.68,15.21,17.39,20.58,79.74,6.35,10.47,16.14,30.47,12.86,54.02-6.35,45.6-58.41,80.58-108.03,77.17-46.79-3.22-90.52-40.51-95.17-84.88-2.18-20.79,4.73-38.27,10.29-48.87,6.16-55.03,13.95-68.91,20.58-69.45,4.8-.39,9.5,6.16,18.01,18.01,9.13,12.71,14.65,24.68,18.01,33.44Z"/>
      <path class="cls-3" d="m128.8,1190.03c-1.41,2.95-.45,7.31,2.04,9.05,2.49,1.73,5.25-.03,12.68-2.13,13.09-3.71,17.96-2.08,19.87-5.95,1.41-2.87.38-7.14-2.04-9.05-2.45-1.93-5.17-.54-16.32,2.22-11.68,2.89-14.8,2.87-16.23,5.86Z"/>
      <path class="cls-3" d="m130.41,1214.09c-2.46,2.15-3.31,6.54-1.71,9.12,1.6,2.57,4.83,2.06,12.49,3.07,13.49,1.78,17.32,5.21,20.6,2.41,2.43-2.08,3.18-6.4,1.71-9.12-1.49-2.75-4.53-2.54-15.86-4.43-11.87-1.97-14.73-3.23-17.22-1.05Z"/>
    </g>
    <g>
      <path class="cls-3" d="m-16.24,1601.51c6.57-2.24,15.3-4.47,25.72-5.14,16.63-1.07,30.15,2.29,38.58,5.14,2.63-7.61,6.66-17.47,12.86-28.29,8.51-14.85,18.1-31.58,25.72-30.87,7.25.68,15.21,17.39,20.58,79.74,6.35,10.47,16.14,30.47,12.86,54.02-6.35,45.6-58.41,80.58-108.03,77.17-46.79-3.22-90.52-40.51-95.17-84.88-2.18-20.79,4.73-38.27,10.29-48.87,6.16-55.03,13.95-68.91,20.58-69.45,4.8-.39,9.5,6.16,18.01,18.01,9.13,12.71,14.65,24.68,18.01,33.44Z"/>
      <path class="cls-3" d="m129.8,1655.03c-1.41,2.95-.45,7.31,2.04,9.05,2.49,1.73,5.25-.03,12.68-2.13,13.09-3.71,17.96-2.08,19.87-5.95,1.41-2.87.38-7.14-2.04-9.05-2.45-1.93-5.17-.54-16.32,2.22-11.68,2.89-14.8,2.87-16.23,5.86Z"/>
      <path class="cls-3" d="m131.41,1679.09c-2.46,2.15-3.31,6.54-1.71,9.12,1.6,2.57,4.83,2.06,12.49,3.07,13.49,1.78,17.32,5.21,20.6,2.41,2.43-2.08,3.18-6.4,1.71-9.12-1.49-2.75-4.53-2.54-15.86-4.43-11.87-1.97-14.73-3.23-17.22-1.05Z"/>
    </g>
    <g>
      <path class="cls-3" d="m-16.24,2066.51c6.57-2.24,15.3-4.47,25.72-5.14,16.63-1.07,30.15,2.29,38.58,5.14,2.63-7.61,6.66-17.47,12.86-28.29,8.51-14.85,18.1-31.58,25.72-30.87,7.25.68,15.21,17.39,20.58,79.74,6.35,10.47,16.14,30.47,12.86,54.02-6.35,45.6-58.41,80.58-108.03,77.17-46.79-3.22-90.52-40.51-95.17-84.88-2.18-20.79,4.73-38.27,10.29-48.87,6.16-55.03,13.95-68.91,20.58-69.45,4.8-.39,9.5,6.16,18.01,18.01,9.13,12.71,14.65,24.68,18.01,33.44Z"/>
      <path class="cls-3" d="m129.8,2120.03c-1.41,2.95-.45,7.31,2.04,9.05,2.49,1.73,5.25-.03,12.68-2.13,13.09-3.71,17.96-2.08,19.87-5.95,1.41-2.87.38-7.14-2.04-9.05-2.45-1.93-5.17-.54-16.32,2.22-11.68,2.89-14.8,2.87-16.23,5.86Z"/>
      <path class="cls-3" d="m131.41,2144.09c-2.46,2.15-3.31,6.54-1.71,9.12,1.6,2.57,4.83,2.06,12.49,3.07,13.49,1.78,17.32,5.21,20.6,2.41,2.43-2.08,3.18-6.4,1.71-9.12-1.49-2.75-4.53-2.54-15.86-4.43-11.87-1.97-14.73-3.23-17.22-1.05Z"/>
    </g>
    <g>
      <path class="cls-3" d="m-14.24,206.51c6.57-2.24,15.3-4.47,25.72-5.14,16.63-1.07,30.15,2.29,38.58,5.14,2.63-7.61,6.66-17.47,12.86-28.29,8.51-14.85,18.1-31.58,25.72-30.87,7.25.68,15.21,17.39,20.58,79.74,6.35,10.47,16.14,30.47,12.86,54.02-6.35,45.6-58.41,80.58-108.03,77.17-46.79-3.22-90.52-40.51-95.17-84.88-2.18-20.79,4.73-38.27,10.29-48.87,6.16-55.03,13.95-68.91,20.58-69.45,4.8-.39,9.5,6.16,18.01,18.01,9.13,12.71,14.65,24.68,18.01,33.44Z"/>
      <path class="cls-3" d="m131.8,260.03c-1.41,2.95-.45,7.31,2.04,9.05,2.49,1.73,5.25-.03,12.68-2.13,13.09-3.71,17.96-2.08,19.87-5.95,1.41-2.87.38-7.14-2.04-9.05-2.45-1.93-5.17-.54-16.32,2.22-11.68,2.89-14.8,2.87-16.23,5.86Z"/>
      <path class="cls-3" d="m133.41,284.09c-2.46,2.15-3.31,6.54-1.71,9.12,1.6,2.57,4.83,2.06,12.49,3.07,13.49,1.78,17.32,5.21,20.6,2.41,2.43-2.08,3.18-6.4,1.71-9.12-1.49-2.75-4.53-2.54-15.86-4.43-11.87-1.97-14.73-3.23-17.22-1.05Z"/>
    </g>
    <g>
      <path class="cls-3" d="m-14.24,671.51c6.57-2.24,15.3-4.47,25.72-5.14,16.63-1.07,30.15,2.29,38.58,5.14,2.63-7.61,6.66-17.47,12.86-28.29,8.51-14.85,18.1-31.58,25.72-30.87,7.25.68,15.21,17.39,20.58,79.74,6.35,10.47,16.14,30.47,12.86,54.02-6.35,45.6-58.41,80.58-108.03,77.17-46.79-3.22-90.52-40.51-95.17-84.88-2.18-20.79,4.73-38.27,10.29-48.87,6.16-55.03,13.95-68.91,20.58-69.45,4.8-.39,9.5,6.16,18.01,18.01,9.13,12.71,14.65,24.68,18.01,33.44Z"/>
      <path class="cls-3" d="m131.8,725.03c-1.41,2.95-.45,7.31,2.04,9.05,2.49,1.73,5.25-.03,12.68-2.13,13.09-3.71,17.96-2.08,19.87-5.95,1.41-2.87.38-7.14-2.04-9.05-2.45-1.93-5.17-.54-16.32,2.22-11.68,2.89-14.8,2.87-16.23,5.86Z"/>
      <path class="cls-3" d="m133.41,749.09c-2.46,2.15-3.31,6.54-1.71,9.12,1.6,2.57,4.83,2.06,12.49,3.07,13.49,1.78,17.32,5.21,20.6,2.41,2.43-2.08,3.18-6.4,1.71-9.12-1.49-2.75-4.53-2.54-15.86-4.43-11.87-1.97-14.73-3.23-17.22-1.05Z"/>
    </g>
    <g>
      <path class="cls-3" d="m1147.76,1136.51c6.57-2.24,15.3-4.47,25.72-5.14,16.63-1.07,30.15,2.29,38.58,5.14,2.63-7.61,6.66-17.47,12.86-28.29,8.51-14.85,18.1-31.58,25.72-30.87,7.25.68,15.21,17.39,20.58,79.74,6.35,10.47,16.14,30.47,12.86,54.02-6.35,45.6-58.41,80.58-108.03,77.17-46.79-3.22-90.52-40.51-95.17-84.88-2.18-20.79,4.73-38.27,10.29-48.87,6.16-55.03,13.95-68.91,20.58-69.45,4.8-.39,9.5,6.16,18.01,18.01,9.13,12.71,14.65,24.68,18.01,33.44Z"/>
      <path class="cls-3" d="m1036.79,1173.39c-2.74,1.78-4.19,6.01-2.96,8.79,1.22,2.77,4.5,2.71,11.94,4.78,13.11,3.64,16.42,7.57,20.06,5.26,2.7-1.72,4.04-5.9,2.96-8.79-1.09-2.93-4.13-3.15-15.09-6.6-11.48-3.61-14.13-5.25-16.91-3.44Z"/>
      <path class="cls-3" d="m1293.8,1190.03c-1.41,2.95-.45,7.31,2.04,9.05,2.49,1.73,5.25-.03,12.68-2.13,13.09-3.71,17.96-2.08,19.87-5.95,1.41-2.87.38-7.14-2.04-9.05-2.45-1.93-5.17-.54-16.32,2.22-11.68,2.89-14.8,2.87-16.23,5.86Z"/>
      <path class="cls-3" d="m1036.78,1208.48c-1.76,2.75-1.35,7.2.91,9.23,2.25,2.02,5.22.62,12.85-.55,13.44-2.06,18.08.16,20.45-3.45,1.76-2.67,1.26-7.04-.91-9.23-2.19-2.22-5.06-1.17-16.47.19-11.95,1.42-15.04,1.02-16.83,3.81Z"/>
      <path class="cls-3" d="m1295.41,1214.09c-2.46,2.15-3.31,6.54-1.71,9.12,1.6,2.57,4.83,2.06,12.49,3.07,13.49,1.78,17.32,5.21,20.6,2.41,2.43-2.08,3.18-6.4,1.71-9.12-1.49-2.75-4.53-2.54-15.86-4.43-11.87-1.97-14.73-3.23-17.22-1.05Z"/>
    </g>
    <g>
      <path class="cls-3" d="m1148.76,1601.51c6.57-2.24,15.3-4.47,25.72-5.14,16.63-1.07,30.15,2.29,38.58,5.14,2.63-7.61,6.66-17.47,12.86-28.29,8.51-14.85,18.1-31.58,25.72-30.87,7.25.68,15.21,17.39,20.58,79.74,6.35,10.47,16.14,30.47,12.86,54.02-6.35,45.6-58.41,80.58-108.03,77.17-46.79-3.22-90.52-40.51-95.17-84.88-2.18-20.79,4.73-38.27,10.29-48.87,6.16-55.03,13.95-68.91,20.58-69.45,4.8-.39,9.5,6.16,18.01,18.01,9.13,12.71,14.65,24.68,18.01,33.44Z"/>
      <path class="cls-3" d="m1037.79,1638.39c-2.74,1.78-4.19,6.01-2.96,8.79,1.22,2.77,4.5,2.71,11.94,4.78,13.11,3.64,16.42,7.57,20.06,5.26,2.7-1.72,4.04-5.9,2.96-8.79-1.09-2.93-4.13-3.15-15.09-6.6-11.48-3.61-14.13-5.25-16.91-3.44Z"/>
      <path class="cls-3" d="m1294.8,1655.03c-1.41,2.95-.45,7.31,2.04,9.05,2.49,1.73,5.25-.03,12.68-2.13,13.09-3.71,17.96-2.08,19.87-5.95,1.41-2.87.38-7.14-2.04-9.05-2.45-1.93-5.17-.54-16.32,2.22-11.68,2.89-14.8,2.87-16.23,5.86Z"/>
      <path class="cls-3" d="m1037.78,1673.48c-1.76,2.75-1.35,7.2.91,9.23,2.25,2.02,5.22.62,12.85-.55,13.44-2.06,18.08.16,20.45-3.45,1.76-2.67,1.26-7.04-.91-9.23-2.19-2.22-5.06-1.17-16.47.19-11.95,1.42-15.04,1.02-16.83,3.81Z"/>
      <path class="cls-3" d="m1296.41,1679.09c-2.46,2.15-3.31,6.54-1.71,9.12,1.6,2.57,4.83,2.06,12.49,3.07,13.49,1.78,17.32,5.21,20.6,2.41,2.43-2.08,3.18-6.4,1.71-9.12-1.49-2.75-4.53-2.54-15.86-4.43-11.87-1.97-14.73-3.23-17.22-1.05Z"/>
    </g>
    <g>
      <path class="cls-3" d="m1148.76,2066.51c6.57-2.24,15.3-4.47,25.72-5.14,16.63-1.07,30.15,2.29,38.58,5.14,2.63-7.61,6.66-17.47,12.86-28.29,8.51-14.85,18.1-31.58,25.72-30.87,7.25.68,15.21,17.39,20.58,79.74,6.35,10.47,16.14,30.47,12.86,54.02-6.35,45.6-58.41,80.58-108.03,77.17-46.79-3.22-90.52-40.51-95.17-84.88-2.18-20.79,4.73-38.27,10.29-48.87,6.16-55.03,13.95-68.91,20.58-69.45,4.8-.39,9.5,6.16,18.01,18.01,9.13,12.71,14.65,24.68,18.01,33.44Z"/>
      <path class="cls-3" d="m1037.79,2103.39c-2.74,1.78-4.19,6.01-2.96,8.79,1.22,2.77,4.5,2.71,11.94,4.78,13.11,3.64,16.42,7.57,20.06,5.26,2.7-1.72,4.04-5.9,2.96-8.79-1.09-2.93-4.13-3.15-15.09-6.6-11.48-3.61-14.13-5.25-16.91-3.44Z"/>
      <path class="cls-3" d="m1294.8,2120.03c-1.41,2.95-.45,7.31,2.04,9.05,2.49,1.73,5.25-.03,12.68-2.13,13.09-3.71,17.96-2.08,19.87-5.95,1.41-2.87.38-7.14-2.04-9.05-2.45-1.93-5.17-.54-16.32,2.22-11.68,2.89-14.8,2.87-16.23,5.86Z"/>
      <path class="cls-3" d="m1037.78,2138.48c-1.76,2.75-1.35,7.2.91,9.23,2.25,2.02,5.22.62,12.85-.55,13.44-2.06,18.08.16,20.45-3.45,1.76-2.67,1.26-7.04-.91-9.23-2.19-2.22-5.06-1.17-16.47.19-11.95,1.42-15.04,1.02-16.83,3.81Z"/>
      <path class="cls-3" d="m1296.41,2144.09c-2.46,2.15-3.31,6.54-1.71,9.12,1.6,2.57,4.83,2.06,12.49,3.07,13.49,1.78,17.32,5.21,20.6,2.41,2.43-2.08,3.18-6.4,1.71-9.12-1.49-2.75-4.53-2.54-15.86-4.43-11.87-1.97-14.73-3.23-17.22-1.05Z"/>
    </g>
    <g>
      <path class="cls-3" d="m1150.76,206.51c6.57-2.24,15.3-4.47,25.72-5.14,16.63-1.07,30.15,2.29,38.58,5.14,2.63-7.61,6.66-17.47,12.86-28.29,8.51-14.85,18.1-31.58,25.72-30.87,7.25.68,15.21,17.39,20.58,79.74,6.35,10.47,16.14,30.47,12.86,54.02-6.35,45.6-58.41,80.58-108.03,77.17-46.79-3.22-90.52-40.51-95.17-84.88-2.18-20.79,4.73-38.27,10.29-48.87,6.16-55.03,13.95-68.91,20.58-69.45,4.8-.39,9.5,6.16,18.01,18.01,9.13,12.71,14.65,24.68,18.01,33.44Z"/>
      <path class="cls-3" d="m1039.79,243.39c-2.74,1.78-4.19,6.01-2.96,8.79,1.22,2.77,4.5,2.71,11.94,4.78,13.11,3.64,16.42,7.57,20.06,5.26,2.7-1.72,4.04-5.9,2.96-8.79-1.09-2.93-4.13-3.15-15.09-6.6-11.48-3.61-14.13-5.25-16.91-3.44Z"/>
      <path class="cls-3" d="m1296.8,260.03c-1.41,2.95-.45,7.31,2.04,9.05,2.49,1.73,5.25-.03,12.68-2.13,13.09-3.71,17.96-2.08,19.87-5.95,1.41-2.87.38-7.14-2.04-9.05-2.45-1.93-5.17-.54-16.32,2.22-11.68,2.89-14.8,2.87-16.23,5.86Z"/>
      <path class="cls-3" d="m1039.78,278.48c-1.76,2.75-1.35,7.2.91,9.23,2.25,2.02,5.22.62,12.85-.55,13.44-2.06,18.08.16,20.45-3.45,1.76-2.67,1.26-7.04-.91-9.23-2.19-2.22-5.06-1.17-16.47.19-11.95,1.42-15.04,1.02-16.83,3.81Z"/>
      <path class="cls-3" d="m1298.41,284.09c-2.46,2.15-3.31,6.54-1.71,9.12,1.6,2.57,4.83,2.06,12.49,3.07,13.49,1.78,17.32,5.21,20.6,2.41,2.43-2.08,3.18-6.4,1.71-9.12-1.49-2.75-4.53-2.54-15.86-4.43-11.87-1.97-14.73-3.23-17.22-1.05Z"/>
    </g>
    <g>
      <path class="cls-3" d="m1150.76,671.51c6.57-2.24,15.3-4.47,25.72-5.14,16.63-1.07,30.15,2.29,38.58,5.14,2.63-7.61,6.66-17.47,12.86-28.29,8.51-14.85,18.1-31.58,25.72-30.87,7.25.68,15.21,17.39,20.58,79.74,6.35,10.47,16.14,30.47,12.86,54.02-6.35,45.6-58.41,80.58-108.03,77.17-46.79-3.22-90.52-40.51-95.17-84.88-2.18-20.79,4.73-38.27,10.29-48.87,6.16-55.03,13.95-68.91,20.58-69.45,4.8-.39,9.5,6.16,18.01,18.01,9.13,12.71,14.65,24.68,18.01,33.44Z"/>
      <path class="cls-3" d="m1039.79,708.39c-2.74,1.78-4.19,6.01-2.96,8.79,1.22,2.77,4.5,2.71,11.94,4.78,13.11,3.64,16.42,7.57,20.06,5.26,2.7-1.72,4.04-5.9,2.96-8.79-1.09-2.93-4.13-3.15-15.09-6.6-11.48-3.61-14.13-5.25-16.91-3.44Z"/>
      <path class="cls-3" d="m1296.8,725.03c-1.41,2.95-.45,7.31,2.04,9.05,2.49,1.73,5.25-.03,12.68-2.13,13.09-3.71,17.96-2.08,19.87-5.95,1.41-2.87.38-7.14-2.04-9.05-2.45-1.93-5.17-.54-16.32,2.22-11.68,2.89-14.8,2.87-16.23,5.86Z"/>
      <path class="cls-3" d="m1039.78,743.48c-1.76,2.75-1.35,7.2.91,9.23,2.25,2.02,5.22.62,12.85-.55,13.44-2.06,18.08.16,20.45-3.45,1.76-2.67,1.26-7.04-.91-9.23-2.19-2.22-5.06-1.17-16.47.19-11.95,1.42-15.04,1.02-16.83,3.81Z"/>
      <path class="cls-3" d="m1298.41,749.09c-2.46,2.15-3.31,6.54-1.71,9.12,1.6,2.57,4.83,2.06,12.49,3.07,13.49,1.78,17.32,5.21,20.6,2.41,2.43-2.08,3.18-6.4,1.71-9.12-1.49-2.75-4.53-2.54-15.86-4.43-11.87-1.97-14.73-3.23-17.22-1.05Z"/>
    </g>
  </g>
</svg>